<?xml version="1.0" encoding="UTF-8"?>
<!DOCTYPE svg PUBLIC "-//W3C//DTD SVG 1.1//EN" "http://www.w3.org/Graphics/SVG/1.1/DTD/svg11.dtd">
<!-- Creator: CorelDRAW X7 -->
<svg xmlns="http://www.w3.org/2000/svg" xml:space="preserve" width="11.8072in" height="2.1599in" version="1.1" style="shape-rendering:geometricPrecision; text-rendering:geometricPrecision; image-rendering:optimizeQuality; fill-rule:evenodd; clip-rule:evenodd"
viewBox="0 0 11922 2181"
 xmlns:xlink="http://www.w3.org/1999/xlink">
 <defs>
  <style type="text/css">
   <![CDATA[
    .str0 {stroke:#373435;stroke-width:7.01248}
    .fil5 {fill:none}
    .fil3 {fill:#FEFEFE}
    .fil2 {fill:#373435}
    .fil4 {fill:#616161}
    .fil1 {fill:#7D7D7D}
    .fil0 {fill:white}
   ]]>
  </style>
 </defs>
 <g id="Layer_x0020_1">
  <metadata id="CorelCorpID_0Corel-Layer"/>
  <polygon class="fil0 str0" points="62,90 11843,90 11843,2091 62,2091 "/>
  <polygon class="fil1" points="5407,93 11843,93 11843,2088 5407,2088 "/>
  <path class="fil2" d="M9117 507l272 0c163,0 230,10 272,22 65,18 123,57 166,113 39,51 63,117 63,196 1,83 -18,148 -58,204 -35,50 -95,96 -170,117 -93,26 -153,25 -303,25l-84 0 0 554 -158 0 0 -1231zm158 157l0 364 199 2c24,1 153,-1 207,-60 26,-29 52,-74 48,-135 -4,-57 -29,-102 -73,-136 -11,-8 -42,-21 -63,-26 -29,-6 -62,-9 -110,-9l-208 0z"/>
  <path class="fil2" d="M8424 507l565 1231 -171 0 -183 -391 -481 0 -182 391 -175 0 571 -1231 56 0zm-28 318l-169 365 338 0 -169 -365z"/>
  <polygon class="fil2" points="10084,507 10796,507 10796,664 10243,664 10243,996 10791,996 10791,1153 10243,1153 10243,1581 10791,1581 10791,1738 10084,1738 "/>
  <path class="fil2" d="M5930 674c40,-37 116,-44 170,-18 53,25 92,76 139,139 43,-33 85,-66 128,-99 -113,-159 -221,-241 -396,-214 -177,34 -268,189 -241,353 26,127 105,191 262,313 80,61 158,136 191,190 56,89 23,193 -59,243 -81,45 -174,49 -260,-46 -31,-36 -54,-68 -85,-129 -44,27 -90,54 -134,82 77,147 151,221 265,262 163,51 342,-2 439,-183 70,-158 11,-311 -116,-431 -69,-72 -217,-165 -286,-232 -70,-69 -82,-174 -17,-230z"/>
  <path class="fil2" d="M7428 692c72,38 135,102 172,156 41,-32 83,-65 124,-97 -62,-90 -145,-171 -280,-226 -164,-66 -367,-65 -534,4 -186,85 -304,231 -355,401 -57,228 -12,416 86,566 129,185 302,263 501,271 137,6 260,-17 375,-78 79,-44 150,-101 208,-182 -39,-30 -85,-66 -124,-96 -152,189 -354,237 -567,183 -174,-56 -305,-197 -331,-377 -24,-132 3,-297 109,-418 102,-110 226,-159 354,-165 104,-2 183,18 262,58z"/>
  <path class="fil2" d="M11115 674c40,-38 116,-44 170,-19 53,25 92,77 139,139 43,-32 85,-65 128,-98 -113,-159 -221,-241 -396,-214 -177,33 -268,188 -241,353 26,126 105,191 262,313 80,61 158,135 191,189 56,90 23,194 -59,243 -81,45 -174,49 -260,-45 -31,-37 -54,-68 -85,-130 -44,28 -90,55 -134,82 77,147 151,222 265,263 163,50 342,-3 439,-183 70,-159 11,-312 -116,-432 -69,-71 -217,-165 -286,-232 -70,-69 -82,-174 -17,-229z"/>
  <path class="fil3" d="M9098 517l272 1c163,0 230,10 272,21 65,18 123,58 166,113 40,52 64,118 64,196 0,84 -18,149 -59,205 -35,49 -95,95 -170,117 -93,26 -153,25 -302,25l-84 0 0 554 -158 0 -1 -1232zm159 158l-1 363 199 3c25,0 153,-2 207,-60 26,-29 52,-74 48,-136 -4,-56 -29,-101 -73,-135 -10,-9 -42,-21 -63,-26 -29,-6 -62,-9 -110,-9l-207 0z"/>
  <path class="fil3" d="M8405 518l565 1231 -170 0 -183 -392 -482 0 -182 392 -175 0 571 -1231 56 0zm-28 318l-169 365 339 0 -170 -365z"/>
  <polygon class="fil3" points="10066,517 10777,517 10777,674 10224,674 10224,1007 10772,1007 10772,1164 10224,1164 10224,1592 10772,1592 10772,1749 10066,1749 "/>
  <path class="fil3" d="M5911 685c40,-38 116,-44 170,-19 54,25 92,77 140,139 42,-32 85,-65 127,-98 -112,-159 -221,-241 -396,-214 -176,33 -268,188 -240,353 26,126 104,191 261,313 80,61 158,135 192,189 55,90 22,194 -59,244 -81,44 -174,49 -261,-46 -30,-37 -54,-68 -85,-130 -44,28 -90,55 -134,82 78,148 151,222 265,263 164,51 342,-3 440,-183 70,-159 10,-312 -117,-432 -68,-71 -217,-165 -286,-232 -70,-68 -82,-174 -17,-229z"/>
  <path class="fil3" d="M7409 703c72,38 135,102 172,156 42,-33 83,-65 124,-97 -62,-91 -144,-172 -280,-226 -163,-66 -366,-65 -534,4 -185,84 -303,230 -354,400 -57,229 -12,417 85,567 129,184 303,263 502,271 137,6 259,-18 375,-79 78,-43 149,-100 208,-182 -40,-30 -85,-65 -125,-95 -152,189 -354,237 -567,182 -174,-55 -304,-196 -331,-376 -23,-133 3,-297 109,-418 102,-111 226,-159 354,-165 104,-2 183,18 262,58z"/>
  <path class="fil3" d="M11096 684c40,-37 116,-44 170,-18 54,25 92,77 140,139 42,-33 85,-66 127,-98 -112,-160 -221,-242 -396,-215 -176,34 -268,189 -240,353 26,127 104,191 261,314 80,61 158,135 192,189 55,89 22,193 -59,243 -81,45 -174,49 -261,-46 -30,-36 -54,-68 -85,-129 -44,27 -90,54 -134,82 78,147 151,221 265,262 164,51 342,-2 440,-182 70,-159 10,-312 -117,-432 -68,-71 -217,-165 -286,-232 -70,-69 -82,-174 -17,-230z"/>
  <g id="_490163384">
   <path class="fil2" d="M2013 422c357,0 646,292 646,653 0,360 -289,652 -646,652 -357,0 -646,-292 -646,-652 0,-361 289,-653 646,-653zm0 171c263,0 476,216 476,482 0,265 -213,481 -476,481 -263,0 -476,-216 -476,-481 0,-266 213,-482 476,-482z"/>
   <polygon class="fil2" points="4335,460 5057,460 5057,630 4505,630 4505,949 5053,949 5053,1119 4505,1119 4505,1534 5053,1534 5053,1704 4335,1704 "/>
   <polygon class="fil2" points="2779,1704 2949,460 3013,460 3472,1404 3930,460 3987,460 4163,1705 3997,1704 3888,915 3504,1704 3440,1704 3053,909 2948,1704 "/>
   <polygon class="fil2" points="306,457 469,457 469,957 1021,957 1021,457 1184,457 1184,1693 1021,1693 1021,1118 469,1118 469,1693 306,1693 "/>
  </g>
  <path class="fil4" d="M1990 422c357,0 647,292 647,653 0,360 -290,652 -647,652 -357,0 -646,-292 -646,-652 0,-361 289,-653 646,-653zm0 171c263,0 477,216 477,482 0,265 -214,481 -477,481 -263,0 -476,-216 -476,-481 0,-266 213,-482 476,-482z"/>
  <polygon class="fil4" points="4312,460 5035,460 5035,630 4482,630 4482,949 5030,949 5030,1119 4482,1119 4482,1534 5030,1534 5030,1704 4312,1704 "/>
  <polygon class="fil4" points="2757,1704 2926,460 2990,460 3449,1404 3907,460 3964,460 4141,1705 3974,1704 3865,915 3481,1704 3417,1704 3030,909 2926,1704 "/>
  <polygon class="fil4" points="283,457 446,457 446,957 998,957 998,457 1161,457 1161,1693 998,1693 998,1118 446,1118 446,1693 283,1693 "/>
  <path class="fil3" d="M11572 210c25,0 49,6 73,19 24,13 42,32 56,56 13,24 20,50 20,76 0,26 -7,51 -20,75 -13,24 -31,43 -55,56 -24,13 -48,20 -74,20 -26,0 -50,-7 -74,-20 -23,-13 -42,-32 -55,-56 -13,-24 -19,-49 -19,-75 0,-26 6,-52 20,-76 13,-24 31,-43 55,-56 24,-13 48,-19 73,-19zm0 25c-21,0 -41,5 -61,16 -20,11 -35,26 -46,47 -11,20 -17,41 -17,63 0,22 6,42 17,62 11,20 26,36 46,47 19,11 40,17 61,17 22,0 42,-6 62,-17 19,-11 35,-27 46,-47 11,-20 16,-40 16,-62 0,-22 -6,-43 -17,-63 -11,-21 -26,-36 -46,-47 -20,-11 -40,-16 -61,-16zm-65 209l0 -162 55 0c19,0 32,1 41,4 8,3 15,8 20,16 5,7 7,15 7,24 0,12 -4,22 -12,31 -9,9 -20,13 -34,15 6,2 11,5 14,8 6,7 14,17 24,32l19 32 -31 0 -14 -25c-12,-21 -21,-33 -27,-38 -5,-4 -12,-6 -21,-6l-15 0 0 69 -26 0zm26 -91l31 0c15,0 25,-3 31,-7 5,-5 8,-11 8,-18 0,-5 -1,-9 -4,-13 -3,-4 -6,-6 -11,-8 -5,-2 -13,-3 -26,-3l-29 0 0 49z"/>
  <rect class="fil5" width="11922" height="2181"/>
 </g>
</svg>
